<svg xmlns="http://www.w3.org/2000/svg" xmlns:xlink="http://www.w3.org/1999/xlink" id="visual" viewBox="0 0 900 600" width="900" height="600" version="1.1"><rect x="0" y="0" width="900" height="600" fill="#3EE0CF"/><path d="M0 156L37.5 141.8C75 127.7 150 99.3 225 101.8C300 104.3 375 137.7 450 139.3C525 141 600 111 675 103.2C750 95.3 825 109.7 862.5 116.8L900 124L900 0L862.5 0C825 0 750 0 675 0C600 0 525 0 450 0C375 0 300 0 225 0C150 0 75 0 37.5 0L0 0Z" fill="#2e7870" stroke-linecap="round" stroke-linejoin="miter"/></svg>