<svg xmlns="http://www.w3.org/2000/svg" width="1129" height="132" viewBox="0 0 1129 132" fill="none">
<path d="M76.5 0.5L0.5 128.5H15.5L81 13H136L117.5 45L125 57L158.5 0.5H76.5Z" fill="#3EE0CF"/>
<path d="M98.5 22.5L38 128.5H53L98.5 51L136 115.5H91.5L111.5 81.5L104 70L69.5 128.5H162L98.5 22.5Z" fill="#3EE0CF"/>
<path d="M218.415 129V23.345H177.7V6.6H276.895V23.345H236.18V129H218.415Z" fill="#343E51"/>
<path d="M339.288 131.55C329.711 131.55 321.239 129.595 313.873 125.685C306.563 121.718 300.839 116.193 296.703 109.11C292.566 101.97 290.498 93.5833 290.498 83.95V6.685L308.518 6.6V83.015C308.518 88.2283 309.396 92.8183 311.153 96.785C312.909 100.752 315.261 104.067 318.208 106.73C321.154 109.393 324.441 111.405 328.068 112.765C331.751 114.125 335.491 114.805 339.288 114.805C343.141 114.805 346.881 114.125 350.508 112.765C354.191 111.348 357.506 109.308 360.453 106.645C363.399 103.982 365.723 100.667 367.423 96.7C369.179 92.7333 370.058 88.1717 370.058 83.015V6.6H388.078V83.95C388.078 93.5267 386.009 101.885 381.873 109.025C377.736 116.165 371.984 121.718 364.618 125.685C357.308 129.595 348.864 131.55 339.288 131.55Z" fill="#343E51"/>
<path d="M411.855 129V6.6H461.325C462.515 6.6 463.988 6.65666 465.745 6.76999C467.502 6.82666 469.173 6.99666 470.76 7.28C477.56 8.35666 483.227 10.68 487.76 14.25C492.35 17.82 495.778 22.325 498.045 27.765C500.312 33.205 501.445 39.2117 501.445 45.785C501.445 55.5317 498.952 63.9467 493.965 71.03C488.978 78.0567 481.498 82.4483 471.525 84.205L464.3 85.055H429.62V129H411.855ZM483.425 129L459.285 79.19L477.22 74.6L503.74 129H483.425ZM429.62 68.225H460.645C461.778 68.225 463.025 68.1683 464.385 68.055C465.802 67.9417 467.133 67.7433 468.38 67.46C472.007 66.61 474.925 65.0517 477.135 62.785C479.345 60.4617 480.932 57.7983 481.895 54.795C482.858 51.7917 483.34 48.7883 483.34 45.785C483.34 42.7817 482.858 39.8067 481.895 36.86C480.932 33.8567 479.345 31.2217 477.135 28.955C474.925 26.6317 472.007 25.045 468.38 24.195C467.133 23.855 465.802 23.6283 464.385 23.515C463.025 23.4017 461.778 23.345 460.645 23.345H429.62V68.225Z" fill="#343E51"/>
<path d="M618.386 131.465L584.216 97.465L595.607 86.075L629.607 120.075L618.386 131.465ZM573.506 131.55C561.266 131.55 550.84 128.887 542.227 123.56C533.613 118.177 527.012 110.697 522.422 101.12C517.888 91.5433 515.621 80.4367 515.621 67.8C515.621 55.1633 517.888 44.0567 522.422 34.48C527.012 24.9033 533.613 17.4517 542.227 12.125C550.84 6.74166 561.266 4.05 573.506 4.05C585.69 4.05 596.088 6.74166 604.701 12.125C613.371 17.4517 619.973 24.9033 624.506 34.48C629.04 44.0567 631.307 55.1633 631.307 67.8C631.307 80.4367 629.04 91.5433 624.506 101.12C619.973 110.697 613.371 118.177 604.701 123.56C596.088 128.887 585.69 131.55 573.506 131.55ZM573.506 114.635C582.176 114.748 589.373 112.85 595.096 108.94C600.876 104.973 605.212 99.4767 608.102 92.45C610.992 85.3667 612.436 77.15 612.436 67.8C612.436 58.45 610.992 50.29 608.102 43.32C605.212 36.2933 600.876 30.825 595.096 26.915C589.373 23.005 582.176 21.0217 573.506 20.965C564.836 20.8517 557.611 22.75 551.831 26.66C546.108 30.57 541.801 36.0667 538.911 43.15C536.021 50.2333 534.548 58.45 534.491 67.8C534.435 77.15 535.852 85.3383 538.742 92.365C541.632 99.335 545.966 104.775 551.746 108.685C557.583 112.595 564.836 114.578 573.506 114.635Z" fill="#343E51"/>
<path d="M697.051 131.55C687.475 131.55 679.003 129.595 671.636 125.685C664.326 121.718 658.603 116.193 654.466 109.11C650.33 101.97 648.261 93.5833 648.261 83.95V6.685L666.281 6.6V83.015C666.281 88.2283 667.16 92.8183 668.916 96.785C670.673 100.752 673.025 104.067 675.971 106.73C678.918 109.393 682.205 111.405 685.831 112.765C689.515 114.125 693.255 114.805 697.051 114.805C700.905 114.805 704.645 114.125 708.271 112.765C711.955 111.348 715.27 109.308 718.216 106.645C721.163 103.982 723.486 100.667 725.186 96.7C726.943 92.7333 727.821 88.1717 727.821 83.015V6.6H745.841V83.95C745.841 93.5267 743.773 101.885 739.636 109.025C735.5 116.165 729.748 121.718 722.381 125.685C715.071 129.595 706.628 131.55 697.051 131.55Z" fill="#343E51"/>
<path d="M820.704 131.55C808.464 131.55 798.037 128.887 789.424 123.56C780.81 118.177 774.209 110.697 769.619 101.12C765.085 91.5433 762.819 80.4367 762.819 67.8C762.819 55.1633 765.085 44.0567 769.619 34.48C774.209 24.9033 780.81 17.4517 789.424 12.125C798.037 6.74166 808.464 4.05 820.704 4.05C832.887 4.05 843.285 6.74166 851.899 12.125C860.569 17.4517 867.17 24.9033 871.704 34.48C876.237 44.0567 878.504 55.1633 878.504 67.8C878.504 80.4367 876.237 91.5433 871.704 101.12C867.17 110.697 860.569 118.177 851.899 123.56C843.285 128.887 832.887 131.55 820.704 131.55ZM820.704 114.635C829.374 114.748 836.57 112.85 842.294 108.94C848.074 104.973 852.409 99.4767 855.299 92.45C858.189 85.3667 859.634 77.15 859.634 67.8C859.634 58.45 858.189 50.29 855.299 43.32C852.409 36.2933 848.074 30.825 842.294 26.915C836.57 23.005 829.374 21.0217 820.704 20.965C812.034 20.8517 804.809 22.75 799.029 26.66C793.305 30.57 788.999 36.0667 786.109 43.15C783.219 50.2333 781.745 58.45 781.689 67.8C781.632 77.15 783.049 85.3383 785.939 92.365C788.829 99.335 793.164 104.775 798.944 108.685C804.78 112.595 812.034 114.578 820.704 114.635Z" fill="#343E51"/>
<path d="M897.159 129V6.6H914.924V129H897.159Z" fill="#343E51"/>
<path d="M984.819 131.55C976.036 131.55 968.102 130.048 961.019 127.045C953.992 123.985 948.184 119.65 943.594 114.04C939.06 108.373 936.114 101.658 934.754 93.895L953.284 91.09C955.154 98.57 959.064 104.407 965.014 108.6C970.964 112.737 977.905 114.805 985.839 114.805C990.769 114.805 995.302 114.04 999.439 112.51C1003.58 110.923 1006.89 108.685 1009.38 105.795C1011.93 102.848 1013.21 99.335 1013.21 95.255C1013.21 93.045 1012.81 91.09 1012.02 89.39C1011.28 87.69 1010.23 86.2167 1008.87 84.97C1007.57 83.6667 1005.96 82.5617 1004.03 81.655C1002.16 80.6917 1000.09 79.87 997.824 79.19L966.459 69.925C963.399 69.0183 960.282 67.8567 957.109 66.44C953.935 64.9667 951.017 63.0683 948.354 60.745C945.747 58.365 943.622 55.4467 941.979 51.99C940.335 48.4767 939.514 44.2267 939.514 39.24C939.514 31.7033 941.44 25.3283 945.294 20.115C949.204 14.845 954.474 10.8783 961.104 8.21499C967.734 5.49499 975.157 4.13499 983.374 4.13499C991.647 4.24832 999.042 5.72166 1005.56 8.555C1012.13 11.3883 1017.57 15.4683 1021.88 20.795C1026.24 26.065 1029.25 32.4683 1030.89 40.005L1011.85 43.235C1011 38.645 1009.19 34.7067 1006.41 31.42C1003.63 28.0767 1000.23 25.5267 996.209 23.77C992.186 21.9567 987.822 21.0217 983.119 20.965C978.586 20.8517 974.421 21.5317 970.624 23.005C966.884 24.4783 963.88 26.5467 961.614 29.21C959.404 31.8733 958.299 34.9333 958.299 38.39C958.299 41.79 959.29 44.5383 961.274 46.635C963.257 48.7317 965.694 50.4033 968.584 51.65C971.53 52.84 974.449 53.8317 977.339 54.625L999.949 61C1002.78 61.7933 1005.98 62.87 1009.55 64.23C1013.18 65.5333 1016.67 67.375 1020.01 69.755C1023.41 72.135 1026.21 75.3083 1028.42 79.275C1030.63 83.185 1031.74 88.115 1031.74 94.065C1031.74 100.242 1030.49 105.682 1028 110.385C1025.51 115.032 1022.08 118.942 1017.71 122.115C1013.41 125.232 1008.42 127.583 1002.75 129.17C997.087 130.757 991.109 131.55 984.819 131.55Z" fill="#343E51"/>
<path d="M1049.85 129V6.6H1128.05V23.345H1067.62V57.685H1117.85V74.43H1067.62V112.255H1128.05V129H1049.85Z" fill="#343E51"/>
</svg>