<svg xmlns="http://www.w3.org/2000/svg" width="164" height="129" viewBox="0 0 164 129" fill="none">
<path d="M77.5 0.5L1.5 128.5H16.5L82 13H137L118.5 45L126 57L159.5 0.5H77.5Z" fill="#3EE0CF"/>
<path d="M99.5 22.5L39 128.5H54L99.5 51L137 115.5H92.5L112.5 81.5L105 70L70.5 128.5H163L99.5 22.5Z" fill="#3EE0CF"/>
<path d="M77.5 0.5L1.5 128.5H16.5L82 13H137L118.5 45L126 57L159.5 0.5H77.5Z" stroke="#3EE0CF"/>
<path d="M99.5 22.5L39 128.5H54L99.5 51L137 115.5H92.5L112.5 81.5L105 70L70.5 128.5H163L99.5 22.5Z" stroke="#3EE0CF"/>
</svg>